<svg width="64" height="43" viewBox="0 0 64 43" fill="none" xmlns="http://www.w3.org/2000/svg">
<path d="M64 4.20628V37.5372C64 38.8299 62.9376 39.8774 61.6263 39.8774H55.7402L32 35.671L8.25975 39.8773H2.37375C1.0625 39.8773 0 38.8299 0 37.5371V4.20628L32 2.0308e-07L64 4.20628Z" transform="translate(0 3.12259)" fill="#609399"/>
<path d="M64 2.34018V7.32886H0V2.34018C0 1.04747 1.06237 -3.5351e-07 2.37375 -3.5351e-07H61.6263C62.9376 -3.5351e-07 64 1.04735 64 2.34018Z" fill="#6FC5D6"/>
<path d="M44.6361 3.61032e-07H2.84438L3.66211e-07 11.2158H47.4805L44.6361 3.61032e-07Z" transform="translate(8.25975 31.784)" fill="#1B4145"/>
<path d="M15.3814 0H0V9.99006H15.3814V0Z" transform="translate(30.3957 13.7014)" fill="#ECE7EA"/>
<path d="M12.1728 4.21204e-07H-4.27246e-07V9.99006H12.1728C12.8241 8.452 13.1825 6.76384 13.1825 4.99435C13.1825 3.22486 12.8241 1.5367 12.1728 4.21204e-07Z" transform="translate(18.223 13.7013)" fill="#1B4145"/>
<path d="M5.066 -5.86676e-07C7.86488 -5.86676e-07 10.1334 2.23642 10.1334 4.99435C10.1334 7.75364 7.86488 9.99006 5.066 9.99006C2.2685 9.99006 -5.79834e-07 7.75364 -5.79834e-07 4.99435C-5.79834e-07 2.23629 2.26838 -5.86676e-07 5.066 -5.86676e-07Z" transform="translate(40.7111 13.7014)" fill="white"/>
<path d="M5.06738 -5.86676e-07C7.86488 -5.86676e-07 10.1334 2.23642 10.1334 4.99435C10.1334 7.75364 7.86488 9.99006 5.06738 9.99006C2.2685 9.99006 4.11987e-07 7.75364 4.11987e-07 4.99435C4.11987e-07 2.23629 2.2685 -5.86676e-07 5.06738 -5.86676e-07Z" transform="translate(13.1555 13.7014)" fill="white"/>
</svg>
