<svg width="240" height="240" viewBox="0 0 240 240" fill="none" xmlns="http://www.w3.org/2000/svg">
<path d="M235.949 117.966C235.949 183.116 183.129 235.932 117.975 235.932C52.8202 235.932 -2.86403e-10 183.116 -2.86403e-10 117.966C-2.86403e-10 52.8164 52.8202 0 117.975 0C183.129 0 235.949 52.8164 235.949 117.966Z" fill="#556080"/>
<path d="M73.2259 36.6103C73.2259 56.8312 56.8354 73.2206 36.613 73.2206C16.3906 73.2206 1.37339e-06 56.8312 1.37339e-06 36.6103C1.37339e-06 16.3894 16.3906 2.68936e-06 36.613 2.68936e-06C56.8354 2.68936e-06 73.2259 16.3894 73.2259 36.6103Z" transform="translate(81.3617 81.3558)" fill="#3C4660"/>
<path d="M4.06811 101.695C1.82263 101.695 -4.57797e-06 99.8723 -4.57797e-06 97.627V4.06781C-4.57797e-06 1.8225 1.82263 -1.83105e-06 4.06811 -1.83105e-06C6.31358 -1.83105e-06 8.13622 1.8225 8.13622 4.06781V97.627C8.13622 99.8728 6.31358 101.695 4.06811 101.695Z" transform="translate(199.337 97.627)" fill="#26B99A"/>
<path d="M24.4087 48.8138C10.7234 48.8138 -4.00572e-06 38.0911 -4.00572e-06 24.4069C-4.00572e-06 10.9467 11.0896 6.40869e-06 24.7218 6.40869e-06H44.7492C46.9947 6.40869e-06 48.8173 1.8225 48.8173 4.06781V24.4069C48.8173 38.0911 38.0939 48.8138 24.4087 48.8138Z" transform="translate(158.656 191.186)" fill="#26B99A"/>
<path d="M31.4532 81.3613C31.0425 81.3613 30.6314 81.3004 30.2207 81.1701C28.0807 80.4908 26.8928 78.2048 27.5726 76.0607L30.7622 66.0173C34.6268 54.4119 32.0396 41.5452 24.0253 32.3886L1.0408 6.78599C-0.460251 5.11396 -0.32196 2.54756 1.35394 1.04241C3.0261 -0.462751 5.60112 -0.320251 7.09795 1.35553L30.111 26.991C40.0577 38.3526 43.2553 54.2572 38.4952 68.5312L35.3305 78.5216C34.7806 80.2546 33.1778 81.3613 31.4532 81.3613Z" transform="translate(199.336 97.6238)" fill="#26B99A"/>
<path d="M32.5449 16.2712C32.5449 25.2572 25.259 32.5425 16.2724 32.5425C7.28584 32.5425 1.08727e-06 25.2572 1.08727e-06 16.2712C1.08727e-06 7.28531 7.28584 2.40326e-06 16.2724 2.40326e-06C25.259 2.40326e-06 32.5449 7.28531 32.5449 16.2712Z" transform="translate(101.702 101.695)" fill="#8697CB"/>
<path d="M54.2725 -5.72205e-08L-2.17454e-06 61.1391C4.87348 64.1452 8.97815 68.2495 11.9845 73.1227L73.128 18.8541C67.5752 11.8819 61.2452 5.55656 54.2725 -5.72205e-08Z" transform="translate(137.14 25.6772)" fill="#8697CB"/>
<path d="M61.2532 -5.72205e-06L-6.43777e-07 54.1303C5.62213 61.2042 12.0295 67.6111 19.1039 73.2286L73.2381 11.9841C68.3642 8.9775 64.2595 4.87312 61.2532 -5.72205e-06Z" transform="translate(25.5703 137.133)" fill="#8697CB"/>
</svg>
