<svg width="155" height="155" viewBox="0 0 155 155" fill="none" xmlns="http://www.w3.org/2000/svg">
<path d="M132.3 22.6997C102.034 -7.56656 52.9659 -7.56656 22.6997 22.6997C-7.56656 52.9659 -7.56656 102.034 22.6997 132.3C52.9659 162.567 102.034 162.567 132.3 132.3C162.567 102.034 162.567 52.9659 132.3 22.6997ZM91.2008 91.2008C83.6335 98.768 71.3665 98.768 63.802 91.2008C56.2347 83.6335 56.2347 71.3665 63.802 63.802C71.3693 56.2375 83.6363 56.2347 91.2008 63.802C98.7653 71.3693 98.7653 83.6335 91.2008 91.2008Z" fill="#424A60"/>
<path d="M51.9744 8.91796C40.0838 -2.97265 20.8058 -2.97265 8.91796 8.91796C-2.97265 20.8086 -2.97265 40.0865 8.91796 51.9744C20.8086 63.865 40.0865 63.865 51.9744 51.9744C63.865 40.0838 63.865 20.8086 51.9744 8.91796ZM36.3167 36.3167C33.0728 39.5606 27.8167 39.5606 24.5728 36.3167C21.3289 33.0728 21.3289 27.8167 24.5728 24.5728C27.8167 21.3289 33.0728 21.3289 36.3167 24.5728C39.5606 27.8167 39.5606 33.0756 36.3167 36.3167Z" transform="translate(47.0538 47.0538)" fill="#E7ECED"/>
<path d="M6.93065 6.93065C4.8271 9.03421 2.48274 10.7447 -4.81465e-06 12.1065L22.5772 53.4026C28.8989 49.9428 34.8498 45.5558 40.2028 40.2028C45.5558 34.8498 49.9428 28.8989 53.4026 22.5772L12.1065 -4.81465e-06C10.7475 2.48551 9.03421 4.8271 6.93065 6.93065Z" transform="translate(92.0975 92.0975)" fill="#7383BF"/>
<path d="M46.4719 46.4719C48.5755 44.3684 50.9198 42.6578 53.4026 41.2961L30.8253 -2.16448e-07C24.5036 3.45979 18.5528 7.84681 13.1998 13.1998C7.84681 18.5528 3.45979 24.5036 -2.16448e-07 30.8253L41.2961 53.4026C42.6551 50.917 44.3684 48.5755 46.4719 46.4719Z" transform="translate(9.49989 9.49989)" fill="#7383BF"/>
</svg>
